<svg width="32" height="32" viewBox="0 0 32 32" fill="none" xmlns="http://www.w3.org/2000/svg">
<g clip-path="url(#clip0_4024_385)">
<path d="M16.0005 32.132C15.7858 32.132 15.5724 32.0768 15.38 31.9657L2.48374 24.5202C2.09968 24.2987 1.86328 23.8886 1.86328 23.4455V8.55447C1.86328 8.11146 2.09968 7.70133 2.48374 7.47983L15.38 0.0342926C15.7641 -0.187212 16.2369 -0.187212 16.621 0.0342926L29.516 7.47983C29.9001 7.70133 30.1365 8.11146 30.1365 8.55447V23.4455C30.1365 23.8886 29.9001 24.2987 29.516 24.5202L16.621 31.9657C16.4286 32.0768 16.2152 32.132 16.0005 32.132ZM4.34513 22.7289L16.0005 29.4578L27.6546 22.7289V9.2711L16.0005 2.5422L4.34513 9.2711V22.7289Z" fill="white"/>
<path d="M16.0006 32.1322C15.3156 32.1322 14.7596 31.5763 14.7596 30.8913V16.0002C14.7596 15.3152 15.3156 14.7593 16.0006 14.7593C16.6856 14.7593 17.2415 15.3152 17.2415 16.0002V30.8913C17.2415 31.5763 16.6856 32.1322 16.0006 32.1322Z" fill="white"/>
<path d="M15.9994 17.2411C15.789 17.2411 15.5756 17.1877 15.3801 17.0742L2.48385 9.62864C1.89007 9.28677 1.68717 8.52794 2.02905 7.93416C2.37216 7.34038 3.12851 7.13625 3.72415 7.47998L16.6204 14.9255C17.2142 15.268 17.4171 16.0268 17.0746 16.6206C16.845 17.019 16.4281 17.2411 15.9994 17.2411Z" fill="white"/>
<path d="M16.0018 17.2411C15.5731 17.2411 15.1562 17.0183 14.926 16.6206C14.5835 16.0268 14.7864 15.268 15.3801 14.9255L28.2752 7.47998C28.8684 7.13625 29.6272 7.34038 29.9703 7.93416C30.3128 8.52794 30.1099 9.28677 29.5161 9.62926L16.6211 17.0748C16.4262 17.1877 16.2122 17.2411 16.0018 17.2411Z" fill="white"/>
</g>
<defs>
<clipPath id="clip0_4024_385">
<rect width="32" height="32" fill="white"/>
</clipPath>
</defs>
</svg>
